<svg width="168" height="16" viewBox="0 0 168 16" fill="none" xmlns="http://www.w3.org/2000/svg">
<path d="M10.512 10.512C9.392 11.6427 8.02133 12.208 6.4 12.208C4.77867 12.208 3.408 11.6427 2.288 10.512C1.168 9.38133 0.608 8.01067 0.608 6.4C0.608 4.77867 1.168 3.408 2.288 2.288C3.408 1.15733 4.77867 0.591999 6.4 0.591999C8.02133 0.591999 9.392 1.15733 10.512 2.288C11.6427 3.408 12.208 4.77867 12.208 6.4C12.208 8.01067 11.6427 9.38133 10.512 10.512ZM3.312 9.504C4.144 10.336 5.17333 10.752 6.4 10.752C7.62667 10.752 8.65067 10.336 9.472 9.504C10.304 8.66133 10.72 7.62667 10.72 6.4C10.72 5.16267 10.304 4.128 9.472 3.296C8.65067 2.45333 7.62667 2.032 6.4 2.032C5.17333 2.032 4.144 2.45333 3.312 3.296C2.49067 4.128 2.08 5.16267 2.08 6.4C2.08 7.62667 2.49067 8.66133 3.312 9.504ZM23.3089 10.512C22.1889 11.6427 20.8182 12.208 19.1969 12.208C17.5755 12.208 16.2049 11.6427 15.0849 10.512C13.9649 9.38133 13.4049 8.01067 13.4049 6.4C13.4049 4.77867 13.9649 3.408 15.0849 2.288C16.2049 1.15733 17.5755 0.591999 19.1969 0.591999C20.8182 0.591999 22.1889 1.15733 23.3089 2.288C24.4395 3.408 25.0049 4.77867 25.0049 6.4C25.0049 8.01067 24.4395 9.38133 23.3089 10.512ZM16.1089 9.504C16.9409 10.336 17.9702 10.752 19.1969 10.752C20.4235 10.752 21.4475 10.336 22.2689 9.504C23.1009 8.66133 23.5169 7.62667 23.5169 6.4C23.5169 5.16267 23.1009 4.128 22.2689 3.296C21.4475 2.45333 20.4235 2.032 19.1969 2.032C17.9702 2.032 16.9409 2.45333 16.1089 3.296C15.2875 4.128 14.8769 5.16267 14.8769 6.4C14.8769 7.62667 15.2875 8.66133 16.1089 9.504ZM36.1058 10.512C34.9858 11.6427 33.6151 12.208 31.9938 12.208C30.3724 12.208 29.0018 11.6427 27.8818 10.512C26.7618 9.38133 26.2018 8.01067 26.2018 6.4C26.2018 4.77867 26.7618 3.408 27.8818 2.288C29.0018 1.15733 30.3724 0.591999 31.9938 0.591999C33.6151 0.591999 34.9858 1.15733 36.1058 2.288C37.2364 3.408 37.8018 4.77867 37.8018 6.4C37.8018 8.01067 37.2364 9.38133 36.1058 10.512ZM28.9058 9.504C29.7378 10.336 30.7671 10.752 31.9938 10.752C33.2204 10.752 34.2444 10.336 35.0658 9.504C35.8978 8.66133 36.3138 7.62667 36.3138 6.4C36.3138 5.16267 35.8978 4.128 35.0658 3.296C34.2444 2.45333 33.2204 2.032 31.9938 2.032C30.7671 2.032 29.7378 2.45333 28.9058 3.296C28.0844 4.128 27.6738 5.16267 27.6738 6.4C27.6738 7.62667 28.0844 8.66133 28.9058 9.504ZM43.3026 4.688L44.3426 0.799999H45.5426L44.9026 4.688H43.3026ZM45.7826 4.688L46.8226 0.799999H48.0226L47.3826 4.688H45.7826ZM55.7859 4H56.9059V12H55.5299V6.384L51.0979 12H49.9779V4H51.3539V9.616L55.7859 4ZM64.5608 4H65.9528V12H64.5608V8.656H60.4168V12H59.0247V4H60.4168V7.328H64.5608V4ZM74.0236 4V5.344H71.3036V12H69.9116V5.344H67.1756V4H74.0236ZM80.8744 4H82.3624L79.0984 12.496C78.757 13.4027 78.277 14.0907 77.6584 14.56C77.0397 15.04 76.3357 15.2533 75.5464 15.2V13.904C76.5277 13.9787 77.2477 13.4453 77.7064 12.304L77.8344 12.016L74.3624 4H75.8344L78.5704 10.272L80.8744 4ZM90.2928 12H88.5648L84.9168 8.208V12H83.5247V4H84.9168V7.536L88.3728 4H90.1648L86.3408 7.872L90.2928 12ZM97.6049 10.992C96.7835 11.8027 95.7862 12.208 94.6129 12.208C93.4395 12.208 92.4422 11.8027 91.6209 10.992C90.8102 10.1813 90.4049 9.184 90.4049 8C90.4049 6.816 90.8102 5.81867 91.6209 5.008C92.4422 4.19733 93.4395 3.792 94.6129 3.792C95.7862 3.792 96.7835 4.19733 97.6049 5.008C98.4262 5.81867 98.8369 6.816 98.8369 8C98.8369 9.184 98.4262 10.1813 97.6049 10.992ZM94.6129 10.848C95.4129 10.848 96.0849 10.576 96.6289 10.032C97.1729 9.488 97.4449 8.81067 97.4449 8C97.4449 7.18933 97.1729 6.512 96.6289 5.968C96.0849 5.424 95.4129 5.152 94.6129 5.152C93.8235 5.152 93.1569 5.424 92.6129 5.968C92.0689 6.512 91.7969 7.18933 91.7969 8C91.7969 8.81067 92.0689 9.488 92.6129 10.032C93.1569 10.576 93.8235 10.848 94.6129 10.848ZM107.045 10.672H108.149V14.144H106.773V12H100.773V14.144H99.3974V10.672H100.373C100.885 9.968 101.141 8.98133 101.141 7.712V4H107.045V10.672ZM101.957 10.672H105.669V5.296H102.517V7.712C102.517 8.90667 102.331 9.89333 101.957 10.672ZM111.73 0.783999L110.69 4.672H109.49L110.13 0.783999H111.73ZM114.21 0.783999L113.17 4.672H111.97L112.61 0.783999H114.21ZM118.261 10.352L117.221 14.24H116.021L116.661 10.352H118.261ZM123.748 12V10.784L127.7 6.752C128.756 5.696 129.284 4.78933 129.284 4.032C129.284 3.40267 129.092 2.912 128.708 2.56C128.324 2.208 127.855 2.032 127.3 2.032C126.244 2.032 125.476 2.53333 124.996 3.536L123.748 2.8C124.1 2.07467 124.585 1.52533 125.204 1.152C125.833 0.778666 126.527 0.591999 127.284 0.591999C128.223 0.591999 129.039 0.901333 129.732 1.52C130.425 2.13867 130.772 2.97067 130.772 4.016C130.772 5.14667 130.105 6.37867 128.772 7.712L125.908 10.56H130.98V12H123.748ZM139.677 10.624C138.92 11.68 137.858 12.208 136.493 12.208C135.128 12.208 134.066 11.68 133.309 10.624C132.552 9.568 132.173 8.16 132.173 6.4C132.173 4.64 132.552 3.232 133.309 2.176C134.066 1.12 135.128 0.591999 136.493 0.591999C137.858 0.591999 138.92 1.12 139.677 2.176C140.434 3.232 140.813 4.64 140.813 6.4C140.813 8.16 140.434 9.568 139.677 10.624ZM134.397 9.616C134.888 10.3733 135.586 10.752 136.493 10.752C137.4 10.752 138.098 10.3733 138.589 9.616C139.09 8.85867 139.341 7.78667 139.341 6.4C139.341 5.01333 139.09 3.94133 138.589 3.184C138.098 2.416 137.4 2.032 136.493 2.032C135.586 2.032 134.888 2.41067 134.397 3.168C133.906 3.92533 133.661 5.00267 133.661 6.4C133.661 7.78667 133.906 8.85867 134.397 9.616ZM141.904 12V10.784L145.856 6.752C146.912 5.696 147.44 4.78933 147.44 4.032C147.44 3.40267 147.248 2.912 146.864 2.56C146.48 2.208 146.011 2.032 145.456 2.032C144.4 2.032 143.632 2.53333 143.152 3.536L141.904 2.8C142.256 2.07467 142.741 1.52533 143.36 1.152C143.989 0.778666 144.683 0.591999 145.44 0.591999C146.379 0.591999 147.195 0.901333 147.888 1.52C148.581 2.13867 148.928 2.97067 148.928 4.016C148.928 5.14667 148.261 6.37867 146.928 7.712L144.064 10.56H149.136V12H141.904ZM157.833 10.624C157.076 11.68 156.015 12.208 154.649 12.208C153.284 12.208 152.223 11.68 151.465 10.624C150.708 9.568 150.329 8.16 150.329 6.4C150.329 4.64 150.708 3.232 151.465 2.176C152.223 1.12 153.284 0.591999 154.649 0.591999C156.015 0.591999 157.076 1.12 157.833 2.176C158.591 3.232 158.969 4.64 158.969 6.4C158.969 8.16 158.591 9.568 157.833 10.624ZM152.553 9.616C153.044 10.3733 153.743 10.752 154.649 10.752C155.556 10.752 156.255 10.3733 156.745 9.616C157.247 8.85867 157.497 7.78667 157.497 6.4C157.497 5.01333 157.247 3.94133 156.745 3.184C156.255 2.416 155.556 2.032 154.649 2.032C153.743 2.032 153.044 2.41067 152.553 3.168C152.063 3.92533 151.817 5.00267 151.817 6.4C151.817 7.78667 152.063 8.85867 152.553 9.616ZM165.992 4V5.344H162.136V12H160.743V4H165.992ZM166.639 12.176C166.351 12.176 166.106 12.0747 165.903 11.872C165.7 11.6693 165.599 11.424 165.599 11.136C165.599 10.848 165.7 10.6027 165.903 10.4C166.106 10.1973 166.351 10.096 166.639 10.096C166.938 10.096 167.183 10.1973 167.375 10.4C167.578 10.6027 167.679 10.848 167.679 11.136C167.679 11.424 167.578 11.6693 167.375 11.872C167.183 12.0747 166.938 12.176 166.639 12.176Z" fill="black" fill-opacity="0.5"/>
</svg>
